<svg width="19" height="20" viewBox="0 0 19 20" fill="none" xmlns="http://www.w3.org/2000/svg">
    <path
        d="M2.0816 20C1.50916 20 1.01912 19.7824 0.61147 19.3472C0.203823 18.912 0 18.3889 0 17.7778V2.22222C0 1.61111 0.203823 1.08796 0.61147 0.652777C1.01912 0.217592 1.50916 0 2.0816 0H16.6528C17.2252 0 17.7153 0.217592 18.1229 0.652777C18.5306 1.08796 18.7344 1.61111 18.7344 2.22222V17.7778C18.7344 18.3889 18.5306 18.912 18.1229 19.3472C17.7153 19.7824 17.2252 20 16.6528 20H2.0816ZM2.0816 17.7778H16.6528V2.22222H2.0816V17.7778Z"
        fill="#081A5C" />
</svg>
