<svg width="20" height="13" viewBox="0 0 20 13" fill="none" xmlns="http://www.w3.org/2000/svg">
    <path fill-rule="evenodd" clip-rule="evenodd"
        d="M20.0001 1.19399C20.0001 0.534567 19.5026 0 18.8889 0H17.7778C17.1642 0 16.6667 0.534567 16.6667 1.19399V11.5419C16.6667 12.2013 17.1642 12.7359 17.7778 12.7359H18.8889C19.5026 12.7359 20.0001 12.2013 20.0001 11.5419V1.19399ZM12.2562 2.54718H13.3673C13.9809 2.54718 14.4784 3.09457 14.4784 3.76982V11.5132C14.4784 12.1885 13.9809 12.7359 13.3673 12.7359H12.2562C11.6425 12.7359 11.145 12.1885 11.145 11.5132V3.76982C11.145 3.09457 11.6425 2.54718 12.2562 2.54718ZM7.74389 5.30661H6.63278C6.01912 5.30661 5.52166 5.86097 5.52166 6.54482V11.4977C5.52166 12.1815 6.01912 12.7359 6.63278 12.7359H7.74389C8.35754 12.7359 8.855 12.1815 8.855 11.4977V6.54482C8.855 5.86097 8.35754 5.30661 7.74389 5.30661ZM2.22223 7.85379H1.11111C0.497463 7.85379 0 8.40024 0 9.07432V11.5154C0 12.1894 0.497463 12.7359 1.11111 12.7359H2.22223C2.83588 12.7359 3.33334 12.1894 3.33334 11.5154V9.07432C3.33334 8.40024 2.83588 7.85379 2.22223 7.85379Z"
        fill="black" />
</svg>
