<svg width="18" height="13" viewBox="0 0 18 13" fill="none" xmlns="http://www.w3.org/2000/svg">
    <path fill-rule="evenodd" clip-rule="evenodd"
        d="M9.00046 2.58977C11.6121 2.58988 14.1239 3.55813 16.0166 5.2944C16.1592 5.42844 16.387 5.42675 16.5274 5.29061L17.8898 3.96388C17.9609 3.89483 18.0005 3.80129 17.9999 3.70397C17.9993 3.60665 17.9586 3.51356 17.8867 3.44532C12.9188 -1.14844 5.08136 -1.14844 0.113466 3.44532C0.0415029 3.51351 0.000671799 3.60657 8.21573e-06 3.70389C-0.000655368 3.80121 0.0389033 3.89477 0.10993 3.96388L1.47278 5.29061C1.61307 5.42696 1.84106 5.42865 1.9835 5.2944C3.87651 3.55801 6.38857 2.58976 9.00046 2.58977ZM8.99694 7.02135C10.4222 7.02126 11.7966 7.55862 12.8531 8.52902C12.996 8.66674 13.2211 8.66376 13.3604 8.52229L14.7122 7.13693C14.7833 7.06426 14.8228 6.96568 14.8218 6.86325C14.8208 6.76081 14.7793 6.66307 14.7067 6.59189C11.4895 3.5563 6.50715 3.5563 3.28992 6.59189C3.21724 6.66307 3.17578 6.76086 3.17483 6.86333C3.17387 6.9658 3.21351 7.06437 3.28484 7.13693L4.63619 8.52229C4.77549 8.66376 5.00058 8.66674 5.14348 8.52902C6.19928 7.55926 7.5726 7.02195 8.99694 7.02135ZM11.6478 9.95477C11.6498 10.0654 11.6109 10.1721 11.5402 10.2496L9.25455 12.8272C9.18754 12.9029 9.0962 12.9456 9.00088 12.9456C8.90557 12.9456 8.81422 12.9029 8.74722 12.8272L6.46119 10.2496C6.39057 10.172 6.35172 10.0653 6.35381 9.95468C6.35591 9.84406 6.39876 9.7393 6.47225 9.66514C7.93195 8.28547 10.0698 8.28547 11.5295 9.66514C11.603 9.73936 11.6457 9.84415 11.6478 9.95477Z"
        fill="black" />
</svg>
